<?xml version="1.0" encoding="UTF-8"?>
<svg id="Layer_2" data-name="Layer 2" xmlns="http://www.w3.org/2000/svg" viewBox="0 0 863 293">
  <g id="Layer_1-2" data-name="Layer 1">
    <path d="M863,0v293H0V0h863ZM247,205l-54.49-116.01-21.05-1.06-55.46,117.07h29l7.11-18.88,57.23.05,8.66,18.84h29ZM284,88h-29l55.46,117.07,21.4-.21,36.64-78.86,36.65,78.83,21.85-.32,53.99-116.51h-28l-36.01,84-37.46-83.03c-1.32-1.36-18.11-1.41-21.07-1.04-4.58.56-31.93,75.11-37.96,84.07l-36.5-84ZM621,205l-54.49-116.01-21.05-1.06-55.46,117.07h29l7.61-19.06,56.76.2,8.63,18.87h29ZM658,88h-32l47,70.5v46.5h26v-45.5l48-71.5h-32l-28.5,44.01-28.5-44.01Z"/>
    <polygon points="573 162 537 162 555.99 121 573 162"/>
    <polygon points="200 162 163 162 181.5 119.99 200 162"/>
  </g>
</svg>