<?xml version="1.0" encoding="UTF-8"?>
<svg id="Layer_1" xmlns="http://www.w3.org/2000/svg" version="1.1" xmlns:xlink="http://www.w3.org/1999/xlink" viewBox="0 0 100 24">
  <!-- Generator: Adobe Illustrator 29.6.1, SVG Export Plug-In . SVG Version: 2.1.1 Build 9)  -->
  <defs>
    <style>
      .st0 {
        fill: #141518;
      }

      .st1 {
        fill: none;
      }

      .st2 {
        clip-path: url(#clippath);
      }
    </style>
    <clipPath id="clippath">
      <rect class="st1" width="100" height="23.7"/>
    </clipPath>
  </defs>
  <g class="st2">
    <g>
      <path class="st0" d="M0,2.4c.2-.5.6-.6,1.1-.7,1.2-.2,2.7,0,3.9-.1,3.5-.1,8.7-.8,11.2,2.2,1.6,1.9,1.1,5-.7,6.7l-1.4,1.1c.9.6,1.8.9,2.6,1.6,2.5,2.2,2.1,6.5-.6,8.4-2.9,2.1-7.3,1.7-10.7,1.7-1.2,0-2.4,0-3.6-.1-.7,0-1.6.2-1.9-.6v-.3c.3-.7,1-1,1.4-1.5.8-1,.7-2.8.7-4,.1-3.1.1-6.2,0-9.3,0-1.3.1-2.3-.8-3.3-.4-.5-1.1-.8-1.3-1.5v-.3ZM6.9,10.8s.2.1.2.1c.4.1,1.8,0,2.3,0,2.5-.2,3.6-2.2,3.2-4.6-.4-2.3-2.9-2.9-5-2.6-.5,0-.9.2-.9.8.1,1.9-.2,3.9,0,5.8,0,.1,0,.4.1.5h0ZM7.7,13c-.2,0-.6,0-.8.2,0,0-.1.7-.1.9,0,1.7-.1,3.8,0,5.4,0,.6-.1,1.1.6,1.4.7.3,3.2.2,3.9,0,1.6-.5,2.4-1.9,2.4-3.5.2-3.9-2.8-4.8-6.1-4.5Z"/>
      <path class="st0" d="M100,22.1v.3c-.1.3-.3.5-.6.6-1,.4-5,.5-5.9.1-.4-.2-.7-.5-.6-1s.7-1.3.9-1.9c.4-1.2.3-4.3.2-5.7,0-1.4-.2-3.7-2-4-4.4-.7-3.9,4.7-3.6,7.6,0,.7.2,1.4.4,2.1.1.5.6,1.3.6,1.7,0,.4-.2.7-.5.8-.9.4-4.3.5-5.3.3-1.2-.2-1.6-.4-1-1.6.5-1.1,1.2-1.5,1.3-2.9.3-3.6,0-7.7,0-11.3,0-1.1.1-3-.3-4-.3-.7-1.1-1.2-1.6-1.7-.2-.8.7-1.1,1.3-1.3,1-.3,2.5-.5,3.5-.4.5,0,.9.3,1.1.7.2.4.2,1.3.2,1.8,0,1.9-.2,4.1,0,6,.1,1.3,1.8.2,2.5,0,1.7-.6,3.8-.8,5.4.3,2.6,1.9,2,6.9,2.1,9.7,0,.4,0,1.1.2,1.6.2.8,1.2,1.4,1.7,2.1h0Z"/>
      <path class="st0" d="M59.9,11.1c-1.3-1.2-3.7-.4-4.4,1.1-.8,1.7-.4,6.4.1,8.2.2.5.7,1.6.6,2.1,0,.4-.6.5-.9.6-1.2.2-2.8.1-3.9,0-.8,0-2.5,0-2.4-1.3,0-.9,1.5-1.2,1.8-2,.1-.5,0-1.2,0-1.8,0-1.7.1-3.4,0-5.1,0-.4,0-.9-.2-1.3-.3-.8-1.1-1.6-1.6-2.2-.2-.7.3-.9.9-1.1.9-.4,3.2-.7,4.1-.4.7.2,1.1,1.4,1.6,1.4.4,0,1.3-.7,1.7-.9,2.3-1.2,5.6-1.2,7,1.3,1.1,2,.8,6.5.9,8.8,0,.4,0,1,.1,1.4.3,1,1.7,1.2,1.9,2,.1.5-.2.7-.6.9-1.1.5-4.3.5-5.5.3-2-.3-.8-1.9-.4-3,.4-1.3.3-4.1.3-5.6,0-1-.2-2.8-.9-3.5h0Z"/>
      <path class="st0" d="M39.2,7.9c2.1-.2,4.4,0,5.8,1.7,1.4,1.8,1,6.2,1.1,8.4,0,.6,0,1.5.2,2,.4,1,1.6.9,1.8,1.5.3.8-.4,1.2-1.1,1.4-1,.4-3,.8-4,.2-.3-.2-1-1.1-1.2-1.1-.3,0-1.3.7-1.6.9-3.3,1.7-7.9.6-7.5-3.9.2-2.4,2.5-3.6,4.5-4.2,1.1-.3,2.6-.4,3.5-.7,1.5-.6,1.1-3.8-.7-4.1-2.3-.3-2.5,2-4.2,2.5-1.6.4-2.8-.5-2.1-2.1.6-1.6,3.9-2.5,5.5-2.6h0ZM40.7,16.2c-1.9,0-3.9,1-3.7,3.2.2,2.8,4.3,2.1,4.8,0,.1-.6.2-2.4,0-3-.1-.5-.7-.4-1.1-.4h0Z"/>
      <path class="st0" d="M74.5,7.8c1.5-.1,5.5,0,6.2,1.6.4.8.3,2.9-.8,3.1-1.4.3-2.1-1.1-3.1-1.8-2.2-1.5-4.1,0-4.7,2.2-.9,3.8.4,8.6,5.2,7.8.9-.2,2.1-.8,3-.8.8,0,.9.8.6,1.4-.8,1.3-4,2.2-5.5,2.3-10.2.5-10.3-15-.9-15.8Z"/>
      <path class="st0" d="M22.9,8c.6,0,1.8,0,2.3.2.5.3.5,1.5,1,1.5.3,0,1.1-.6,1.4-.8,1.1-.6,2.1-1,3.3-.6,1.3.3,1.5,2.1.8,3.1-.9,1.4-2.2.2-3.3,0-1.5-.4-2.4,1-2.7,2.3-.2,1.2-.4,4.6.2,5.7.5.9,1.9,2,2.1,2.9,0,.5-.2.6-.6.7-1.5.4-4.8.3-6.5.2-1.1,0-2.1-.3-1.3-1.6.3-.4.8-.7,1.1-1.1.6-.7.6-1.3.6-2.2,0-1.7.2-4.8-.1-6.4-.2-1.1-.7-1.1-1.4-1.7-.4-.4-.7-.9-.2-1.4.5-.5,2.5-.8,3.2-.8h0Z"/>
    </g>
  </g>
</svg>