<?xml version="1.0" encoding="UTF-8"?>
<svg id="Layer_2" data-name="Layer 2" xmlns="http://www.w3.org/2000/svg" viewBox="0 0 396.21 125">
  <g id="Layer_1-2" data-name="Layer 1">
    <path d="M52.19.23c2.72.3,8.64,2.05,11.37,3.13,5.17,2.04,13.47,10.94,17.91,9.71,2.12-.59,2.39-3.71,6.2-3.94,1.86-.11,8.21,1.28,10.12,1.98,1.15.42,1.65-.56,1.38,1.56-1.01,7.92-11.96,14.3-19.49,14.31-9.45,0-14.19-7.03-21.96-9.81C27.16,6.24,2.54,41.47,22.77,67.02c12.53,15.82,40.29,14.58,49.43-3.9l13.98,7c-17.37,28.76-62.13,29.32-79.54.02C-10.59,41.11,7.36,4.01,41.19.23c2.79-.31,8.21-.31,11,0Z"/>
    <path d="M218.19,125V27.18h14v5.98c5.04-1.95,8.84-5.34,14.5-5.99,17-1.94,32.42,4.67,36.86,22.1,6.84,26.85-13.22,47.4-40.16,41.08l-11.2-5.29v37.93l-10.42,1.07-1.58.93h-2ZM265.84,45.49c-15.56-16.66-45.53,4.94-29.65,26.1,15.9,21.17,48.47-5.94,29.65-26.1Z"/>
    <path d="M143.19,91.06v-5.99c-26.02,19.48-60.79-4.45-51.3-35.73,5.01-16.52,20.09-24.08,36.8-22.16,5.66.65,9.46,4.03,14.49,5.99v-5.98h14.01v63.88h-14ZM119.92,40.4c-23.25,3.95-18.38,40.31,5.62,38.62,25.23-1.77,23.24-43.53-5.62-38.62Z"/>
    <path d="M357.19,64.11h-52c1.36,13.1,19.55,19.23,29.95,12.43,1.13-.74,4.21-4.44,4.55-4.44h16.5c-9.5,23.52-44.29,26.81-59.41,6.9-12.11-15.95-7.24-39.1,10.53-48.21,24.77-12.7,52.31,5.82,49.89,33.33ZM341.19,52.14c-3.37-16.78-31.42-16.86-35,0h35Z"/>
    <path d="M178.19,72.1c.11.1-.11,1.87.56,2.88,6.27,9.47,20.08,2.42,16.7-5.59-3.63-8.63-21.87-4.9-25.99-19.02-5.16-17.66,14.78-29,29.44-20.41,1.94,1.13,8.77,6.89,7.24,9.14l-9.64,3.89c-1.61.15-8.44-8.11-13.38-1.41-5.36,7.27,14.38,11.61,18.76,14.35,13.87,8.68,9.66,28.01-4.31,34.02-14.34,6.17-32.4-1.26-33.39-17.85h14Z"/>
    <path d="M379.19,27.18l.51,6c5.16-3.92,9.48-7,16.49-6v12.41c-6.93-.47-17,6.95-17,14.04v37.43h-14V27.18h14Z"/>
  </g>
</svg>