<?xml version="1.0" encoding="UTF-8"?>
<svg id="Layer_1" xmlns="http://www.w3.org/2000/svg" version="1.1" xmlns:xlink="http://www.w3.org/1999/xlink" viewBox="0 0 82 20">
  <!-- Generator: Adobe Illustrator 29.6.1, SVG Export Plug-In . SVG Version: 2.1.1 Build 9)  -->
  <defs>
    <style>
      .st0 {
        fill: none;
      }

      .st1 {
        clip-path: url(#clippath);
      }
    </style>
    <clipPath id="clippath">
      <rect class="st0" width="81.3" height="19.9"/>
    </clipPath>
  </defs>
  <g class="st1">
    <g>
      <path d="M10.5,2.4c1.7,0,3,.5,3.9,1.6.9,1,1.3,2.6,1.3,4.6v7.2h-5.4v-6.1c0-2-.8-2.9-2.4-2.9s-2.6,1-2.6,3v6H0V3h5.3v3.2c.4-1.3,1.1-2.2,1.9-2.8.8-.6,1.9-.9,3.2-.9Z"/>
      <path d="M29,3h5.4v12.8h-5.4v-2.6c-.9,2.1-2.6,3.1-5.1,3.1s-3-.5-3.9-1.4c-.9-.9-1.3-2.3-1.3-4.1V2.9h5.4v6.4c0,1,.2,1.7.6,2.2.4.5,1,.7,1.8.7,1.7,0,2.6-1,2.6-3V3h0Z"/>
      <path d="M45.2,16.2c-2.6,0-4.6-.6-5.9-1.8-1.3-1.2-1.9-2.7-1.9-4.6V2.9h5.4v6.2c0,1,.2,1.7.6,2.2.4.5,1,.7,1.9.7s1.5-.2,1.9-.7c.4-.5.6-1.2.6-2.2V2.9h5.4v6.8c0,1.9-.7,3.4-2,4.6-1.3,1.2-3.3,1.8-5.9,1.8Z"/>
      <path d="M61.3,0h-5.3v15.7h5.3V0Z"/>
      <path d="M75.6,3l-3.1,6.9-2.9-6.9h-5.7l5.6,11.6-2.9,5.3h6l8.6-16.9h-5.7Z"/>
    </g>
  </g>
</svg>