<?xml version="1.0" encoding="UTF-8"?>
<svg id="Layer_1" xmlns="http://www.w3.org/2000/svg" version="1.1" xmlns:xlink="http://www.w3.org/1999/xlink" viewBox="0 0 84 28">
  <!-- Generator: Adobe Illustrator 29.6.1, SVG Export Plug-In . SVG Version: 2.1.1 Build 9)  -->
  <defs>
    <style>
      .st0 {
        fill: none;
      }

      .st1 {
        clip-path: url(#clippath);
      }
    </style>
    <clipPath id="clippath">
      <rect class="st0" width="84" height="28"/>
    </clipPath>
  </defs>
  <g class="st1">
    <g>
      <path d="M14,0C6.3,0,0,6.3,0,14s6.3,14,14,14,14-6.3,14-14S21.7,0,14,0ZM14,22.2c-4.6,0-8.3-3.7-8.3-8.3s3.7-8.3,8.3-8.3,8.3,3.7,8.3,8.3-3.7,8.3-8.3,8.3ZM84,.9l-9.3,13.4v12.8h-6.7v-12.8L58.8.9h7.6l5.1,7.6,5.1-7.6h7.6ZM54.3.9v20.5h7.6v5.6h-14.3V.9h6.7ZM37.4.9v20.5h7.6v5.6h-14.3V.9h6.7ZM19.9,16.3c-1,2.3-3.3,3.9-5.9,3.9s-4.9-1.5-5.9-3.9c-.2-.4,0-.8.4-.9.4-.2.8,0,.9.4.8,1.8,2.6,3,4.6,3s3.8-1.2,4.6-3c.2-.3.6-.5.9-.4.4.2.5.6.4.9h0Z"/>
      <path d="M80.6,26.6c-.4.4-.8.5-1.3.5s-1-.2-1.3-.5c-.4-.4-.5-.8-.5-1.3s.2-1,.6-1.4c.4-.3.8-.5,1.3-.5s1,.2,1.3.6c.4.4.6.8.6,1.3s-.2,1-.6,1.4h0ZM78.1,24.2c-.3.3-.5.7-.5,1.1s.2.8.5,1.1c.3.3.7.5,1.1.5s.8-.2,1.1-.5c.3-.3.5-.7.5-1.1s-.2-.8-.5-1.1c-.3-.3-.7-.5-1.1-.5s-.8.2-1.1.5h0ZM78.4,26.3v-2.1h.6c.3,0,.4,0,.4,0,.2,0,.3,0,.4.1.2.1.3.3.3.5s0,.3-.1.4c0,0-.2.1-.4.1.1,0,.2,0,.3.1.1,0,.2.3.2.5v.2s0,0,0,0c0,0,0,0,0,0h0c0,0-.5,0-.5,0,0,0,0-.2,0-.3s0-.2,0-.3c0,0,0-.1-.2-.2,0,0-.1,0-.2,0h-.1s-.1,0-.1,0v.7h-.6ZM79.4,24.6c0,0-.2,0-.3,0h-.1v.6h.2c.1,0,.2,0,.3,0,0,0,.1-.1.1-.2s0-.2-.2-.2Z"/>
    </g>
  </g>
</svg>