<?xml version="1.0" encoding="UTF-8"?>
<svg id="Layer_2" data-name="Layer 2" xmlns="http://www.w3.org/2000/svg" viewBox="0 0 139 140.38">
  <g id="Layer_1-2" data-name="Layer 1">
    <path d="M77,.19v16l6.33-1.78,2.44,1.1.84,2.74,3.37.5,7.03-12.56,12.98,6.01-7.05,15.38c.35,1.88,6.49-.32,7.58,4.11.29,1.16-1.35,3.75,1.46,5.06l14.92-7.5,6.17,12.31-14.08,7.68c.63,4.12,2.09,3.49,4.91,5.55,1.44,3.64-2.03,3.02-2.01,4.87l1.59,3.54h15.5v14h-15.5c-.72,0-1.36,1.69-1.54,2.52-.52,2.41,3.58,2.88,1.04,7.49l-2.99-1.02-.88,3.39c.37,1.7,9.86,5.65,11.83,7.17,4.27,3.29-2.06,9.99-4.61,13.37-3.81,1.14-14.09-11.04-16.87-4.89-.68,1.5,1.28,3.37-.92,5.07-1.36,1.05-4.71-1.12-6.11,1.89l7.43,13.69-.79,1.86-10.59,6.35-9.06-13.83c-3.58-1.12-2.64,2.95-4.16,3.97l-8.28-1.03v15.5c-3.76,3.11-10.26.84-15,1.5v-17c-3.47-1.45-3.87,2.09-5.4,2.03-4.7-.2-3.19-5.82-6.98-4.92-1.28.3-6.28,10.59-7.39,12.61-.52.94.39,1.64-1.55,1.14-1.77-.46-11.38-6.17-11.6-7.48l6.9-12.89-2.01-3.01c-8.28,1.88-3.63-5.52-6.96-7.02l-14.99,7.55-5.97-12.36c.8-2.78,16.81-6.44,12.5-11.72-.96-1.17-4.46-.2-4.35-4.49l2.7-1.54-.91-3.89H0v-15h16c.56-4.63-3.29-3.69-.99-9.01l2.99,1.02.89-4.86c-.55-.95-10.14-4.68-11.88-6.67-3.09-3.56,4.54-9.39,5.02-13.48,4.05.86,11.89,8.97,15.56,6.08,2.33-1.83-.71-5.3,2.37-6.53,1.37-.55,4.72,1.54,5.9-2.19l-6.82-14.31,11.47-5.8,7.55,12.73c4.48-.22,4.62-1.5,6.47-4.98l7.47,2V1.69c3.76-3.11,10.26-.84,15-1.5ZM28,62.19v15h-8c.13,3.53,3.76,2.83,3.96,3.03,1.32,1.36-2.71,5.83-.95,7.96,3.39-.13,4.91-4.97,8.02-1.54.79.87,5.77,9.48,5.72,10.06-.22,2.63-6.69,2.8-5.74,4.97.87,1.99,4.37.8,5.99,1.52-.46,2.85-1.3,4.15,1.5,5.98l3.65-5.85,12.79,5.96-2.94,7.9c2.54,1.36,3.19-2.03,3.56-2.03,5.78-.01,2.54,3.6,6.43,4.03l.11-6.89c5.2-2.03,9.64-.41,14.88-.1v7s3-.01,3-.01c-.78-7.03,6.54-1.51,7-2l-3-7.98,12.51-7.01c-.25,3.52,7.38,8.51,5.95,3.99-.25-.79-2.59-2.17.58-3.55,1.52-.66,2.64-.13,3.96.56l.57-3.02-5.54-3.47,7-12.51,6.97,2.99c.36-.35-4.52-8.07,1.99-7l.02-2.99h-7.01s0-4,0-4h-30.5l-3.5,4.99c3.72-.35,6.75-.06,9.77,2.22l.22,7.79h-34c-1.28-7.86,2.5-10.73,10-10.01.41-1.66-1.67-.36-2-1.72-.23-.95.36-2.65-.12-3.19l-2.95-.62v-5.91s2.88-.68,2.88-.68l1.19-4.86c-6.71.95-12.47-5.11-7.36-10.87l32.35.87c1.19,7.16-1.84,10.57-8.99,10l2.63,4.86,29.82.2.61-2.95,6.94-.12v-3.99s-3,1-3,1c.1-1.4-.3-2.99,0-4.33.26-1.11,2.88.22.98-3.67l-6.42,2.98-7.46-11.49c.77-2.79,7.14-2.43,5.87-5.98-.8-2.25-3.62,0-5.01-.97-1.94-1.34.86-5.07-1.5-5.54-2.53-.5-3.04,4.65-4.46,5.57-1.64,1.06-10.52-5.09-12.59-6.55-.8-1.67,7.07-8.99.6-7.44-1.16.28-2.15,1.71-4.39.46l-.65-3.03-2.99-.02v8.01h-15v-8.01s-2.99.01-2.99.01c.55,2.87-.9,3.53-3.46,4.07l-2.04-2.09-2.49,1.51,3.98,7.49-12.43,6.08-4.06-7.06c-3.01,1.37-.99,4.53-2.94,6.1-1.36,1.1-5.4-.49-5.08,2.9l6.11,5.04-5.67,10.89-7.4-2.94-1.55,2.51c4.22,1.53,1.54,5.25-1.96,6.01-.25,3.22,7.17.67,7.99,1.49Z"/>
  </g>
</svg>