<?xml version="1.0" encoding="UTF-8"?>
<svg id="Layer_1" xmlns="http://www.w3.org/2000/svg" version="1.1" xmlns:xlink="http://www.w3.org/1999/xlink" viewBox="0 0 62 22">
  <!-- Generator: Adobe Illustrator 29.6.1, SVG Export Plug-In . SVG Version: 2.1.1 Build 9)  -->
  <defs>
    <style>
      .st0 {
        fill: #fff;
      }

      .st1 {
        mask: url(#mask);
      }

      .st2 {
        fill: none;
      }

      .st3 {
        clip-path: url(#clippath);
      }
    </style>
    <clipPath id="clippath">
      <rect class="st2" width="62" height="22"/>
    </clipPath>
    <mask id="mask" x="0" y="0" width="62" height="22" maskUnits="userSpaceOnUse">
      <g id="mask0_5_44">
        <path class="st0" d="M0,0h62v22H0V0Z"/>
      </g>
    </mask>
  </defs>
  <g class="st3">
    <g class="st1">
      <g>
        <path d="M57.2,9.8h0s0,0,0,0c0-3.8-2-6.2-5.4-6.2s-5.6,2.5-5.6,6.2,2.2,6.2,5.6,6.2,4.4-1.2,5.2-3.5l-2.1-.5c-.4,2.4-1.5,3.4-3,3.4s-3.2-1.7-3.2-5.6h0s8.5,0,8.5,0h0ZM51.8,4.2c1.8,0,2.8,1.4,2.9,4.9h-6.1c.1-3.4,1.3-4.9,3.2-4.9ZM40.8,8.9l-1.2-.4c-1.6-.4-2.4-1.2-2.4-2.2s1-2.1,2.2-2.1,2.4.9,2.7,3l2-.5c-.4-2-2.3-3.1-4.7-3.1s-3.8,1.3-3.8,3.4,1.1,2.9,3.2,3.5l1.2.4c1.5.4,2.7,1,2.7,2.3s-1.1,2.3-2.6,2.3-2.7-1-3-3.4l-2,.5c.4,2.3,2.5,3.5,5.1,3.5s4.4-1.7,4.4-3.7-1.5-2.9-3.7-3.5h0ZM5.4,3.6c-1.4,0-2.5.7-3.2,1.3v-1.1H0v17.6h2.2v-6.7c.7.6,1.8,1.3,3.2,1.3,3.4,0,5.4-2.5,5.4-6.2s-2.1-6.2-5.4-6.2ZM5.3,15.4c-1.2,0-2.5-.7-3.1-1.7v-7.7c.6-.9,2-1.7,3.1-1.7,1.9,0,3.1,1.6,3.1,5.5s-1.2,5.5-3.1,5.5ZM21.4,5.7c-.2,0-.5-.1-.8-.4l-.8-.8c-.8-.8-1.2-.9-1.7-.9s-1,.3-1.6.9c-.5.5-.8.9-1.2,1.4v-2.1h-2.2v12h2.2V7c.7-.9,1.4-1.6,2.1-1.6s.6.2,1.1.6l.8.8c.5.4.7.7,1.2.7s1.4-1.2,1.7-1.8l-.3-.2c-.2.2-.4.3-.6.3h0ZM28,3.6c-3.4,0-5.6,2.5-5.6,6.2s2.2,6.2,5.6,6.2,5.6-2.5,5.6-6.2-2.2-6.2-5.6-6.2ZM28,15.5c-2,0-3.2-1.7-3.2-5.6s1.2-5.6,3.2-5.6,3.2,1.7,3.2,5.6-1.2,5.6-3.2,5.6Z"/>
        <path d="M60.4,3.5c.9,0,1.6.7,1.6,1.6s-.7,1.6-1.6,1.6-1.6-.7-1.6-1.6.7-1.6,1.6-1.6ZM60.4,6.5c.7,0,1.3-.6,1.3-1.3s-.6-1.3-1.3-1.3-1.3.6-1.3,1.3.6,1.3,1.3,1.3ZM60.8,6.1l-.5-.8h-.3v.8h-.3v-1.9h.8c.4,0,.6.2.6.5s-.2.5-.4.5l.5.8h-.3ZM60,5h.5c.2,0,.3,0,.3-.2s-.1-.2-.3-.2h-.5v.5Z"/>
      </g>
    </g>
  </g>
</svg>