<?xml version="1.0" encoding="UTF-8"?>
<svg id="Layer_2" data-name="Layer 2" xmlns="http://www.w3.org/2000/svg" viewBox="0 0 648.62 114.39">
  <g id="Layer_1-2" data-name="Layer 1">
    <path d="M404.89,3.69c5.85,8.29,11.54,16.69,17.42,24.95,13.91,19.54,28.68,38.6,41.21,59.05l-.37-81.82h-7.85c-.73,0-.72-2.19,0-2.19h34.52v2.19h-8.4v106.29h-22.28c-14.03-20.83-28.75-41.33-42.82-62.2-5.85-8.67-11.56-17.43-17.27-26.2l.55,86.2h8.4v2.19h-34.7v-2.19h8.04V5.88h-8.04v-2.19h31.6Z"/>
    <path d="M94.97,31.81h-20.09c-1.48-6.54-6.01-10.99-12.23-13.16-9.41-3.27-33.53-3.96-36.91,8.39-2.87,10.47,4.87,14.46,13.35,17,23.73,7.12,62.33,5.66,59.55,40.92-2.48,31.5-52.81,33.88-74.89,24.82-12.67-5.2-21.34-15.85-23.75-29.39l19.47-.3c.91.27,2.31,4.56,2.99,5.78,7.91,14.38,32.53,16.39,46.31,10.86,11.25-4.52,13.64-18.6,3.08-25.19C53.8,60.3,7.67,66.02,5.12,36.37,2.35,4.16,41.09-1.98,65.08,3.07c15.19,3.2,27.88,12.49,29.88,28.74Z"/>
    <path d="M349.56,109.98h7.31v2.19h-37.62v-2.19h8.77l-11.93-27.34-50.31-.08-11.18,27.42h7.67v2.19h-35.43v-2.19h7.31L277.23,5.88h-8.04v-2.19h33.79l46.57,106.29ZM310.47,66.15l-20.27-48.95-18.81,48.95h39.08Z"/>
    <path d="M159.25,109.98v2.19h-36.53v-2.19h8.4V5.88h-8.4l.21-2.2h63.91c36.49-1.04,53.71,46.19,22.42,66.64-17.09,11.17-38.44,4.21-57.15,6.4-.53.06-.94.05-1.26.57v32.14l.55.55h7.85ZM150.85,19.76v40.73l1.26.57c17.8-1.02,54.45,6.71,53.53-21.74-.3-9.27-9.27-19.55-18.81-19.55h-35.98Z"/>
    <path d="M550.45,3.69v2.19h-11.32l27.94,37.62,28.31-37.62h-11.69v-2.19h41.27v2.19h-7.49l-39.58,50.15,41.04,52.85c1.35,1.91,4.01.83,6.03,1.09v2.19h-36.53v-2.19h8.04l-30.5-39.81-29.4,39.81h9.13v2.19h-38.35v-2.19h6.39l40.75-53.16-.21-.88-38.53-50.06h-8.4l.55-2.19h42.55Z"/>
    <path d="M640.21.12c8.59-1.44,11.61,10.18,4.26,13.39-9.87,4.3-13.96-11.76-4.26-13.39ZM646.02,11.23c6.09-6.6-5.47-14.8-9.57-7.2-3.57,6.61,4.88,12.28,9.57,7.2Z"/>
    <path d="M638.84,4.24l.61-.49c3.22-1.02,7.65,1.48,3.78,4.15l1.46,2.36c-2.56.82-1.79-2.12-3.83-2.2-1.1-.04-.36,1.48-.56,2.2h-1.46v-6.03ZM643.19,5.18l-2.89-.4v2.19s2.58-.16,2.58-.16l.31-1.63Z"/>
  </g>
</svg>