<?xml version="1.0" encoding="UTF-8"?>
<svg id="Layer_1" xmlns="http://www.w3.org/2000/svg" version="1.1" xmlns:xlink="http://www.w3.org/1999/xlink" viewBox="0 0 100 13">
  <!-- Generator: Adobe Illustrator 29.6.1, SVG Export Plug-In . SVG Version: 2.1.1 Build 9)  -->
  <defs>
    <style>
      .st0 {
        fill: none;
      }

      .st1 {
        clip-path: url(#clippath);
      }
    </style>
    <clipPath id="clippath">
      <rect class="st0" width="100" height="13"/>
    </clipPath>
  </defs>
  <g class="st1">
    <g>
      <path d="M8.2,9.3c-1.4,1.2-2.6,2.6-4,3.7L0,8.7,9.1,0l9.1,8.7-4.3,4.3-4.5-4.3c-.6-.4-.9.2-1.2.5h0Z"/>
      <path d="M67.1,8.1V1.6h1.7l.2.2v9.6h-1.9c0,0,0-.2-.1-.3-1.7-1.8-3.1-4-4.7-5.8-.1-.2-.3-.5-.5-.5v6.6h-1.8V1.6h1.8c1.7,1.9,3.1,4,4.8,5.9.2.2.5.6.8.7Z"/>
      <path d="M46.6,1.4c7.2-1,8.1,9.4,1.6,10.1-7.1.7-7.9-9.3-1.6-10.1ZM47,3.2c-4.2.6-3.5,7.1,1,6.5,4.2-.5,3.6-7.1-1-6.5Z"/>
      <path d="M76.3,11.3l4.4-9.7h1.9s4.2,9.7,4.2,9.7h-1.8l-3.4-7.4-3.5,7.4h-1.8Z"/>
      <path d="M36.8,1.6v1.6l-.2.2h-3.1v7.9h-1.8V3.4h-3l-.2-.2v-1.6h8.2Z"/>
      <path d="M96,1.6v7.7c0,0,.2.2.1.4h3.9v1.7h-5.8V1.7l.2-.2h1.7Z"/>
    </g>
  </g>
</svg>