<?xml version="1.0" encoding="UTF-8"?>
<svg id="Layer_2" data-name="Layer 2" xmlns="http://www.w3.org/2000/svg" viewBox="0 0 800.03 192.24">
  <g id="Layer_1-2" data-name="Layer 1">
    <path d="M26,40.29l15.48,84.02,1.51.98,18.06-84.95,25.39-.09,17.07,85.05,17.5-85.01h24l-29.95,111.55c-23.87,4.69-25.93-6.52-30.56-25.53-4.3-17.69-7.08-35.63-10.5-53.5-.28-1.46,0-3.1-1.98-3.51l-18.89,82.42c-12.49,2.48-22.73,2.09-27.89-11.15L0,40.29h26Z"/>
    <path d="M289,68.29v10c11.38-16.6,38.38-16.86,47.51,2.01,3.98-3.17,5.91-6.65,10.57-9.43,13.65-8.12,31.32-6.29,40.11,7.72,8.33,13.28,2.76,30.49,5.85,45.15l-1.05,27.55h-22v-48.5c0-2.49-2.83-11.36-4.54-13.46-5.29-6.53-16.77-5.13-21.3,1.62-.56.84-3.16,6.42-3.16,6.84v53.5h-23v-53.5c0-1.29-2.85-7.8-3.98-9.02-4.6-4.99-13.46-4.62-18.36-.32-1.2,1.05-5.66,7.43-5.66,8.34v54.5h-23v-83h22Z"/>
    <path d="M476.01,152.29c-9.48,1.86-18.7,1.16-22.52-9.01-9.06,7.96-18.6,11.56-30.9,9.93-8.56-1.14-18.9-9.98-20.35-18.65-5.15-30.77,24.49-38.11,48.77-38.26.34-20.34-26.57-14.46-38.47-8.01-1.07-.22-5.5-13.41-3.56-15.49,2.19-2.35,16.95-6.01,20.64-6.38,60.57-6.09,41.47,46.72,46.38,85.88ZM452,111.29c-9.93-.18-27.09,1.29-27.08,14.5.01,13.86,16.81,14.25,24.08,5,.56-.71,3-4.71,3-5v-14.5Z"/>
    <path d="M213.99,152.28c-9.29,1.9-18.47.56-22.5-9-5.4,3.8-9.53,8.3-16.44,9.56-38.24,6.95-48.47-38.25-15.57-51.57,9.78-3.96,20.21-4.27,30.54-5.49-2.64-20.32-27.01-13.23-40-7.49.14-3.59-5.57-13.19-3.05-15.52,2.93-2.7,18.17-6.11,22.55-6.47,53.91-4.44,42.15,37.71,43.44,74.53.13,3.69,1.8,7.5,1.03,11.45ZM190,111.29c-9.61-.08-26.99,1.78-27.09,14.49-.08,10.5,11.19,13.97,19.45,9.38,1.45-.81,7.63-7.14,7.63-8.37v-15.5Z"/>
    <path d="M571,40.29v26h20v22h-20v36.5c0,.31,1.75,5.26,2.12,5.88,2.97,5.06,12.02,4.24,16.88,2.62v18c-12,3.27-28.36,4.56-36.44-7.06-1.5-2.16-4.56-9.13-4.56-11.44V40.29h22Z"/>
    <rect x="228" y="40.29" width="23" height="111"/>
    <path d="M539,66.29v22c-9.34-.78-19.51.08-23.75,9.75-.45,1.03-2.25,7.12-2.25,7.75v45.5h-23v-83h20c.07,3.11-.2,6.26.12,9.38.11,1.02.4,4.7,1.87,4.61,3.75-11.58,15.18-17.69,27.01-15.99Z"/>
    <path d="M711.76,127.5c4.36-.71,9.97.59,11.03,5.5.23,15.6,3.75,31.25,4.27,46.77.58,17.25-24.68,14.62-26.11,4.07l4.09-51.02c.58-3.03,3.92-4.87,6.72-5.32Z"/>
    <path d="M678.75,106.48c5.68-.51,10.68,7.67,9.04,13.1-1.45,4.83-37.11,25.55-42.83,31.16-11.94,4.57-22.93-14.63-13.47-22.46l47.26-21.8Z"/>
    <path d="M638.72,40.49c1.23-.27,2.45-.37,3.69-.18l44.65,30.41c3.86,5.31-2.46,16.24-9.31,14.38l-47.71-22.36c-6.23-5.74,1.5-20.67,8.68-22.26Z"/>
    <path d="M794.65,147.94c-3.27,3.03-8.1,4.53-12.4,2.59l-40.97-28.52c-3.63-6.64.26-15.28,7.97-15.55l47.27,21.8c6.37,4.69,3.04,15.12-1.87,19.67Z"/>
    <path d="M706.26,62.04c-1.11-1.18-1.99-9.82-2.26-12.25-1.13-10.45-2.66-23.72-2.99-34-.09-2.71-.37-6.21.2-8.78,2.13-9.51,25.24-9.74,25.81,1.76l-4.23,49.81c-1.1,6.77-12.89,7.32-16.53,3.45Z"/>
    <path d="M797.73,63.02l-47.48,22.09c-8.07,1.59-13.73-9.69-8.3-15.36l42.78-29.29c10.02-2.06,19.49,14.52,12.99,22.56Z"/>
  </g>
</svg>