<?xml version="1.0" encoding="UTF-8"?>
<svg id="Layer_2" data-name="Layer 2" xmlns="http://www.w3.org/2000/svg" viewBox="0 0 450 87">
  <g id="Layer_1-2" data-name="Layer 1">
    <path d="M438.72,3.62c8.59-1.44,11.61,10.18,4.26,13.39-9.87,4.3-13.96-11.76-4.26-13.39ZM444.53,14.73c6.09-6.6-5.47-14.8-9.57-7.2-3.57,6.61,4.88,12.28,9.57,7.2Z"/>
    <path d="M437.36,7.73l.61-.49c3.22-1.02,7.65,1.48,3.78,4.15l1.46,2.36c-2.56.82-1.79-2.12-3.83-2.2-1.1-.04-.36,1.48-.56,2.2h-1.46v-6.03ZM441.7,8.68l-2.89-.4v2.19s2.58-.16,2.58-.16l.31-1.63Z"/>
    <path d="M79,0h21v57.5c0,.72,3.04,5.14,4.04,5.96,4.36,3.59,12.56,3.59,16.92,0,1-.82,4.04-5.24,4.04-5.96V0h21v23l8.35-10.65c18.77-17.27,46.89-16.52,63.67,3.13,1.7,1.99,5.61,9.53,7.47,9.53,16.3-33.28,62.36-33.03,79.01-.03,8.38-24.52,35.68-32.73,55.99-16.3,13.65-11.22,33.61-11.82,46.54.78,11.66,11.37,16.44,50.85,23.42,55.58.63.43,4.6,1.96,5.04,1.96h14.5v20h-19.5c-1.74,0-10.63-4.26-12.44-5.56-12.11-8.69-16.2-37.6-22.3-51.7-3.16-7.3-7.72-10.23-16.03-8.51-3.02.62-8.73,5.4-8.73,8.27v57.5h-21V29.5c0-.55-3.7-5.65-4.65-6.35-4.3-3.23-12.16-3.03-16.31.39-1,.82-4.04,5.24-4.04,5.96v57.5h-21v-24l-5.49,8.01c-18.03,21.55-51.45,21.05-68.51-1.51-1.37-1.82-4.05-8.37-4.51-8.51-1.85-.55-1.33.64-1.73,1.29-1.68,2.73-2.61,5.42-4.79,8.19-20.07,25.53-60.77,20.18-73.48-9.49-7.35,25.09-35.73,33.99-56,16.97-20.04,15.72-44.6,10.25-54.52-13.44-3.24-7.74-10.69-39.35-15.44-42.56-.63-.43-4.6-1.96-5.04-1.96H0V0h20.5c1.83,0,9.48,4.14,11.41,5.59,13.44,10.06,15.44,36.67,22.31,51.69,3.3,7.21,7.8,10.2,16.05,8.49,3.02-.62,8.73-5.4,8.73-8.27V0ZM183.81,20.23c-18.82,1.05-29.26,25.21-15.7,39.17,14.86,15.3,40.94,4.27,39.94-16.92-.57-12.1-12.06-22.93-24.24-22.25ZM263.81,20.22c-29.85,1.64-28.12,47.15,1.59,46.67,30.3-.49,28.75-48.33-1.59-46.67Z"/>
  </g>
</svg>